<?xml version="1.0" encoding="UTF-8"?>
<svg version="1.1" xmlns="http://www.w3.org/2000/svg" width="212" height="238">
<path d="M0 0 C69.96 0 139.92 0 212 0 C212 78.54 212 157.08 212 238 C142.04 238 72.08 238 0 238 C0 159.46 0 80.92 0 0 Z " fill="#D68568" transform="translate(0,0)"/>
<path d="M0 0 C22.11 0 44.22 0 67 0 C64.74769398 13.51383614 64.74769398 13.51383614 61.875 18.4375 C61.25238281 19.52289062 60.62976562 20.60828125 59.98828125 21.7265625 C58.03769617 24.93793833 56.05599985 28.12761858 54.0625 31.3125 C51.01547424 36.20674801 48.23610301 41.17235893 45.625 46.3125 C45.29121338 46.95807861 44.95742676 47.60365723 44.61352539 48.26879883 C39.52854893 58.48190018 38.76705642 68.27710696 41.5 79.3125 C43.59216733 88.58329651 43.10006973 97.95006952 42.71289062 107.38989258 C42.54272811 114.13518673 42.48367619 118.94930249 46.7824707 124.37133789 C48.7592826 127.0156756 49.26992071 129.81419946 50 133 C50.66 133 51.32 133 52 133 C52.20568604 132.42668945 52.41137207 131.85337891 52.62329102 131.26269531 C64.86291957 97.42472029 64.86291957 97.42472029 79 88 C82.43740538 88.09045804 83.76708089 88.78596622 86.3125 91.125 C87.6428125 92.548125 87.6428125 92.548125 89 94 C94.48177411 99.37711017 100.52107043 103.2929022 107.14453125 107.10546875 C110.79123101 109.52496175 112.66160855 111.38324087 113.5625 115.6875 C112.11160072 124.23168463 105.53494939 129.65933747 98.87890625 134.5625 C98.15574219 135.09875 97.43257813 135.635 96.6875 136.1875 C95.67236328 136.92033203 95.67236328 136.92033203 94.63671875 137.66796875 C92.86823815 138.92066415 92.86823815 138.92066415 92 141 C95.70096344 139.00147974 99.06392091 137.066297 102.25 134.3125 C105.82029111 131.31020975 108.34616137 130.8325928 112.875 130.75 C114.13957031 130.71132813 114.13957031 130.71132813 115.4296875 130.671875 C118.68773464 131.08779591 120.41410742 131.9753195 123 134 C124.44140625 136.56640625 124.44140625 136.56640625 125.5625 139.5625 C125.98144531 140.63886719 126.40039062 141.71523437 126.83203125 142.82421875 C127.52865538 144.71838402 128.21671841 146.61578579 128.88671875 148.51953125 C131.36285572 155.27568778 134.99893781 160.94889777 138.9765625 166.8984375 C142.26770361 171.94315959 143.63745253 174.83795889 143 181 C139.80555866 187.65508612 134.69273019 190.46386427 128.1171875 193.19921875 C113.99376443 198.14415189 100.52486835 196.86272687 87 191 C83.03769716 188.98890674 79.52436292 186.70055672 76 184 C75.12601562 183.33097656 74.25203125 182.66195312 73.3515625 181.97265625 C63.05736151 173.42506894 58.48927112 162.48030605 54.1640625 150.17578125 C53.31750203 147.17731557 53.31750203 147.17731557 52 146 C43.02846749 144.31304517 36.2639527 148.07150254 29 153 C16.73624586 162.30791321 8.3664391 174.64092717 1 188 C1.66 188 2.32 188 3 188 C3.38478516 186.93845703 3.38478516 186.93845703 3.77734375 185.85546875 C7.83259415 176.38458045 14.84924862 168.28636908 22 161 C23.02867188 159.93458984 23.02867188 159.93458984 24.078125 158.84765625 C30.39392986 152.75407415 38.9303499 147.13584096 47.671875 145.5 C50 146 50 146 52.1328125 148.015625 C54.27962461 151.44693138 55.59994404 154.9378246 56.875 158.75 C59.51570995 166.20716843 62.72745662 172.4387028 68.125 178.3125 C70.0920204 181.13189591 70.86016358 183.41839579 71.875 186.6875 C74.91223657 196.27815856 80.502361 203.9471135 86.48486328 211.91552734 C92.96394913 220.70585119 93.15512731 226.17178231 94 238 C62.98 238 31.96 238 0 238 C0 159.46 0 80.92 0 0 Z " fill="#FEFEFE" transform="translate(0,0)"/>
<path d="M0 0 C2.54297485 0.76458173 5.09375271 1.49665423 7.6472168 2.2253418 C9.29425659 2.70847841 10.94076185 3.1934418 12.58666992 3.68041992 C13.71036736 4.00262764 13.71036736 4.00262764 14.85676575 4.3313446 C23.31678652 6.92098226 29.47863375 10.76822565 34.16870117 18.34838867 C35.52237035 21.20613472 35.70229758 23.46204325 35.22338867 26.57495117 C34.65491211 26.74510742 34.08643555 26.91526367 33.50073242 27.09057617 C29.55453485 28.32911564 26.39525907 29.46145185 22.91088867 31.76245117 C18.16578751 34.71970616 12.60166938 33.8928791 7.22338867 33.57495117 C7.22338867 34.23495117 7.22338867 34.89495117 7.22338867 35.57495117 C7.90143555 35.73350586 8.57948242 35.89206055 9.27807617 36.05541992 C16.62230255 37.89656255 24.73140562 40.08296812 30.22338867 45.57495117 C30.46166992 47.78198242 30.46166992 47.78198242 30.53588867 50.38745117 C30.95296354 55.50210616 32.29417004 57.18153508 36.22338867 60.57495117 C40.23291798 65.36682766 42.06285114 69.57754057 41.61230469 75.87695312 C40.35007568 84.63332024 35.31842049 92.0122666 30.47338867 99.19995117 C29.87139648 100.10874023 29.2694043 101.0175293 28.64916992 101.95385742 C27.18190443 104.16640062 25.70665976 106.3731205 24.22338867 108.57495117 C21.25338867 108.24495117 18.28338867 107.91495117 15.22338867 107.57495117 C16.04838867 108.60620117 16.87338867 109.63745117 17.72338867 110.69995117 C19.62277412 113.36017 20.22039392 114.55511096 20.72338867 117.88745117 C20.55838867 118.77432617 20.39338867 119.66120117 20.22338867 120.57495117 C15.15786854 123.95196459 9.12619179 123.43077956 3.22338867 122.57495117 C-2.31196846 121.16277502 -7.55532196 118.86072479 -12.77661133 116.57495117 C-24.94508475 111.26507186 -36.77116479 108.54367344 -49.89013672 106.75219727 C-56.92196702 105.73628186 -65.19420431 104.20037413 -70.77661133 99.57495117 C-71.88565057 97.52653914 -72.82644851 95.48181244 -73.68676758 93.31713867 C-74.65196212 91.37054626 -74.65196212 91.37054626 -76.89770508 90.83276367 C-77.51774414 90.74768555 -78.1377832 90.66260742 -78.77661133 90.57495117 C-77.22694837 94.00052191 -75.60287286 96.92751392 -73.15161133 99.76245117 C-68.51405079 105.25429918 -69.30099627 111.70231354 -69.77661133 118.57495117 C-70.52765013 121.76686608 -71.5361645 124.52551938 -72.77661133 127.57495117 C-73.10661133 127.57495117 -73.43661133 127.57495117 -73.77661133 127.57495117 C-73.87135742 126.4844043 -73.87135742 126.4844043 -73.96801758 125.37182617 C-75.34923308 114.03131999 -80.61808124 106.30084678 -87.46411133 97.38745117 C-90.94422947 92.84842529 -94.43060745 88.23273019 -95.77661133 82.57495117 C-95.36254883 80.32495117 -95.36254883 80.32495117 -94.77661133 78.57495117 C-94.1449707 79.02225586 -93.51333008 79.46956055 -92.86254883 79.93041992 C-79.53699105 88.93573202 -64.78620054 93.87275395 -48.68286133 90.89135742 C-39.66699062 88.96671609 -31.22601584 86.48773942 -25.71411133 78.63745117 C-24.22000027 73.75668839 -23.84170805 70.50708461 -26.12426758 65.78979492 C-27.20495268 63.85069328 -28.31729639 61.92881575 -29.46411133 60.02807617 C-30.77661133 57.57495117 -30.77661133 57.57495117 -30.77661133 54.57495117 C-30.00961914 54.64456055 -29.24262695 54.71416992 -28.45239258 54.78588867 C-19.34416298 55.23019255 -11.94171673 53.53705325 -3.32666016 50.70922852 C5.77348125 47.79891251 12.45940439 47.75066712 21.22338867 51.57495117 C17.75543497 48.10699747 13.9789667 47.27841581 9.17260742 47.23120117 C2.74835148 47.35182425 -2.89901533 49.08273828 -8.96411133 51.07495117 C-24.13692283 56.00254763 -24.13692283 56.00254763 -32.02661133 53.57495117 C-35.79831829 50.83189156 -37.0664813 47.82163771 -38.77661133 43.57495117 C-39.20973633 42.66745117 -39.64286133 41.75995117 -40.08911133 40.82495117 C-41.17177522 35.70690367 -40.39433556 30.7337833 -39.77661133 25.57495117 C-40.43661133 25.24495117 -41.09661133 24.91495117 -41.77661133 24.57495117 C-41.73536133 23.46120117 -41.69411133 22.34745117 -41.65161133 21.19995117 C-41.36539274 17.53129093 -41.36539274 17.53129093 -43.77661133 15.57495117 C-44.17425395 13.58673804 -44.51436481 11.58550778 -44.77661133 9.57495117 C-46.09661133 9.24495117 -47.41661133 8.91495117 -48.77661133 8.57495117 C-48.77661133 6.92495117 -48.77661133 5.27495117 -48.77661133 3.57495117 C-46.36196452 2.42469032 -43.94507815 1.27962913 -41.52661133 0.13745117 C-40.84469727 -0.18803711 -40.1627832 -0.51352539 -39.46020508 -0.84887695 C-38.79633789 -1.16147461 -38.1324707 -1.47407227 -37.44848633 -1.79614258 C-36.84101563 -2.08416748 -36.23354492 -2.37219238 -35.60766602 -2.66894531 C-23.94478538 -7.48493749 -11.44299759 -3.45099229 0 0 Z " fill="#FEFDFD" transform="translate(168.776611328125,105.425048828125)"/>
<path d="M0 0 C3.02488471 0.95583286 5.94150801 1.52658048 9.078125 1.97265625 C5.7714018 7.96853496 2.00527265 13.5123215 -1.94335938 19.09960938 C-4.62186274 22.9349904 -6.94719838 26.71081211 -8.921875 30.97265625 C-3.75566826 28.59899369 0.91909451 25.58383173 5.6875 22.49609375 C10.96084752 19.13562719 15.93423717 19.53783326 22.078125 19.97265625 C27.28869005 21.67793208 29.97647981 24.49250208 33.078125 28.97265625 C34.87300894 34.25868809 35.66845063 39.45457991 36.265625 44.97265625 C36.36037109 45.7409375 36.45511719 46.50921875 36.55273438 47.30078125 C37.605704 56.75339404 35.85749589 63.38494098 30.078125 70.97265625 C20.08467529 81.36825685 4.82550875 84.34511514 -8.83984375 86.90234375 C-10.15650024 87.15262329 -10.15650024 87.15262329 -11.49975586 87.40795898 C-13.23667115 87.73439432 -14.97573857 88.04964682 -16.71704102 88.35180664 C-22.39395563 89.41044266 -26.86110826 91.17990594 -31.921875 93.97265625 C-32.31375 92.85890625 -32.705625 91.74515625 -33.109375 90.59765625 C-34.26969415 87.90289636 -34.60624953 87.15179503 -37.234375 85.66015625 C-38.12125 85.43328125 -39.008125 85.20640625 -39.921875 84.97265625 C-41.93683407 84.35266884 -43.9406165 83.69311389 -45.921875 82.97265625 C-46.416875 81.98265625 -46.416875 81.98265625 -46.921875 80.97265625 C-49.561875 81.30265625 -52.201875 81.63265625 -54.921875 81.97265625 C-55.04997559 81.41827881 -55.17807617 80.86390137 -55.31005859 80.29272461 C-57.47664434 72.04687577 -61.44641786 64.93226597 -65.546875 57.53515625 C-66.58891722 55.63735735 -67.62826843 53.73813176 -68.66537476 51.83763123 C-69.59835691 50.13068777 -70.53848117 48.42765375 -71.47900391 46.72485352 C-72.921875 43.97265625 -72.921875 43.97265625 -73.921875 40.97265625 C-73.0040625 40.34359375 -72.08625 39.71453125 -71.140625 39.06640625 C-61.38895768 32.30461183 -53.67380259 25.62846871 -46.859375 15.84765625 C-40.57547257 6.83198209 -33.42311884 0.05190784 -22.3984375 -2.64453125 C-14.27205363 -3.90065999 -7.75745379 -2.66543055 0 0 Z " fill="#FEFEFE" transform="translate(148.921875,9.02734375)"/>
<path d="M0 0 C46.53 0 93.06 0 141 0 C141 57.42 141 114.84 141 174 C140.01 172.68 139.02 171.36 138 170 C136.80454482 168.59312152 135.59605003 167.1972227 134.375 165.8125 C133.76398438 165.11769531 133.15296875 164.42289063 132.5234375 163.70703125 C131.7020547 162.78666129 130.87228165 161.87228165 130 161 C129.97357497 159.2500755 129.95387745 157.50004737 129.9375 155.75 C129.63931005 151.61458377 129.63931005 151.61458377 127.4375 148.265625 C125.33947954 146.93797143 123.2997429 145.93488691 121 145 C119.85724609 144.52626953 119.85724609 144.52626953 118.69140625 144.04296875 C116.81374907 143.30997958 114.90878341 142.64762294 113 142 C113.56074219 141.72027344 114.12148437 141.44054687 114.69921875 141.15234375 C116.24557708 140.37785189 117.7898253 139.59913389 119.33203125 138.81640625 C124.16300695 136.37429097 128.99668009 134.06658866 134 132 C134.64058128 126.87534979 133.28326971 123.99694734 130.47265625 119.88671875 C122.73323994 109.97123313 109.62038347 107.89834967 98.0625 104.8125 C96.73617435 104.45434501 95.41000132 104.09562436 94.08398438 103.73632812 C91.67147523 103.08265598 89.25822668 102.43170192 86.84399414 101.78442383 C84.88052615 101.24286467 82.93226385 100.64408795 81 100 C70.03328187 98.97780257 61.64514535 100.91729919 52.28515625 106.66796875 C50 108 50 108 48 108 C48.1875 105.6875 48.1875 105.6875 49 103 C52.68582984 100.28118612 56.05119708 99.3834291 60.5234375 98.60546875 C61.78542969 98.37520996 63.04742187 98.14495117 64.34765625 97.90771484 C65.00652832 97.79047058 65.66540039 97.67322632 66.34423828 97.5524292 C84.50602762 94.28874386 101.30478125 90.55927781 113 75 C115.41217339 70.92264885 116.24984679 67.51774133 115.60546875 62.81640625 C115.20712317 59.6991687 114.872269 56.59901094 114.640625 53.46484375 C114.02843932 41.67776937 114.02843932 41.67776937 108 32 C102.95093759 27.94669236 97.4565313 27.27128708 91.109375 27.47265625 C84.53905502 28.58696931 78.49735914 32.08976855 74 37 C73.34 36.67 72.68 36.34 72 36 C77.15403681 28.22227846 82.31079231 20.45754586 87.72265625 12.85546875 C89.04342316 11.02883299 89.04342316 11.02883299 90 9 C88.7625 9.0825 87.525 9.165 86.25 9.25 C82.12916939 9.27583593 78.97977958 8.42918721 75.125 7 C65.80196634 3.67541566 57.10366607 4.10688752 48 8 C38.47088477 12.88548547 32.04390712 20.99597617 26 29.625 C21.29150825 36.27339035 15.51490969 41.18718383 9 46 C8.34 45.67 7.68 45.34 7 45 C7.28875 44.41476563 7.5775 43.82953125 7.875 43.2265625 C10.54654174 37.04862222 11.43406932 31.47012479 11.5 24.8125 C11.51804687 24.06500488 11.53609375 23.31750977 11.5546875 22.54736328 C11.48028296 15.51458451 9.15993418 10.3142152 4.375 5.1875 C3.59125 4.465625 2.8075 3.74375 2 3 C1.34 2.01 0.68 1.02 0 0 Z " fill="#FEFDFD" transform="translate(71,0)"/>
<path d="M0 0 C0.33 0 0.66 0 1 0 C1 17.82 1 35.64 1 54 C-37.28 54 -75.56 54 -115 54 C-113.68 48.72 -112.36 43.44 -111 38 C-110.85149118 33.54473542 -110.72872186 29.4007343 -111 25 C-109.66775391 25.38091797 -109.66775391 25.38091797 -108.30859375 25.76953125 C-102.15692623 27.44875466 -96.13275519 28.97060052 -89.765625 29.546875 C-75.56060809 30.83342421 -63.91876613 34.74110739 -50.87890625 40.50390625 C-44.20063137 43.42730442 -38.12176874 45.28355326 -30.75 45.3125 C-29.25726563 45.33763672 -29.25726563 45.33763672 -27.734375 45.36328125 C-24.5976278 44.94654198 -23.22738511 44.2221565 -21 42 C-20.45170095 37.79637393 -21.21028631 34.80314159 -23 31 C-22.14664063 31.20367187 -21.29328125 31.40734375 -20.4140625 31.6171875 C-16.98841762 31.35458417 -16.98841762 31.35458417 -15.35058594 29.19238281 C-13.57724939 26.55931074 -11.96117205 23.87485902 -10.375 21.125 C-9.81554687 20.2071875 -9.25609375 19.289375 -8.6796875 18.34375 C-5.1510062 12.43487329 -2.34367705 6.46840799 0 0 Z " fill="#FEFDFD" transform="translate(211,184)"/>
<path d="M0 0 C2.30854925 2.12333613 3.78412576 4.13612842 5.1875 6.9375 C5.53167969 7.60652344 5.87585938 8.27554688 6.23046875 8.96484375 C7 11 7 11 7 15 C7.66 15 8.32 15 9 15 C11.24579848 19.03640879 13.48769565 23.0749503 15.72607422 27.11547852 C16.48738645 28.48846129 17.24974374 29.86086515 18.01318359 31.23266602 C19.11313649 33.20956963 20.2092596 35.18855499 21.3046875 37.16796875 C21.6443454 37.77650192 21.9840033 38.3850351 22.33395386 39.01200867 C25.6469108 45.01566853 27.27155258 49.07540916 27 56 C29.97 55.34 32.94 54.68 36 54 C37.43088528 56.86177057 36.59991697 58.93375773 36 62 C36.99 62.495 36.99 62.495 38 63 C38.33 61.02 38.66 59.04 39 57 C40.32 57 41.64 57 43 57 C41.125 61.75 41.125 61.75 40 64 C41.11375 62.9790625 41.11375 62.9790625 42.25 61.9375 C45 60 45 60 47.3125 60.25 C48.1478125 60.62125 48.1478125 60.62125 49 61 C49 61.66 49 62.32 49 63 C47.02 63.99 47.02 63.99 45 65 C45 65.99 45 66.98 45 68 C46.98 67.67 48.96 67.34 51 67 C50.67 69.31 50.34 71.62 50 74 C50.99 74 51.98 74 53 74 C52.49396008 76.16874252 52.00016187 77.99967627 51 80 C54.465 79.505 54.465 79.505 58 79 C57.73087196 82.94721131 57.54393391 84.52405783 54.5 87.1875 C53.675 87.785625 52.85 88.38375 52 89 C51.505 90.485 51.505 90.485 51 92 C48.69 92 46.38 92 44 92 C45.16344336 89.67311328 46.34383117 87.39168332 47.625 85.125 C49.12391733 81.7183697 49.39965889 79.67686176 49 76 C47.72252659 72.75074013 46.42629112 71.31701762 43.4375 69.5546875 C42.72762939 69.1220459 42.01775879 68.6894043 41.28637695 68.24365234 C40.53187256 67.79199707 39.77736816 67.3403418 39 66.875 C32.4222842 62.81921342 27.24452219 58.77335844 22.17578125 52.8984375 C19.42241423 50.49603826 17.62595108 50.11450372 14 50 C4.26657215 53.65238879 -1.88677072 66.20289338 -5.96826172 75.17041016 C-8.65476732 81.33186809 -11.04682379 87.56600777 -13 94 C-15 93 -15 93 -15.74609375 91.29296875 C-16.20446197 89.89714687 -16.6627957 88.50131367 -17.12109375 87.10546875 C-17.903444 84.92300035 -17.903444 84.92300035 -19.55078125 83.20703125 C-22.99068809 77.96835911 -22.0638785 69.95939125 -21 64 C-19.6616368 59.84750859 -17.76349392 55.99408349 -15.84814453 52.08251953 C-7.79376504 35.62683152 -2.0491329 18.23021681 0 0 Z " fill="#FEFCFC" transform="translate(65,37)"/>
<path d="M0 0 C5.18316555 1.37201441 8.06405232 4.7037012 11 9 C13.34770235 13.46461363 13.38425879 17.69057836 13.375 22.625 C13.3747583 23.82008179 13.3747583 23.82008179 13.37451172 25.03930664 C13.22314268 32.90332665 11.38313138 39.42530292 7 46 C6.34 46 5.68 46 5 46 C2.69 41.38 0.38 36.76 -2 32 C-2.66 32 -3.32 32 -4 32 C-4.07476562 32.83917969 -4.14953125 33.67835937 -4.2265625 34.54296875 C-6.20164483 52.60916299 -12.16216123 69.37764682 -19.18164062 86.05078125 C-20.14948941 88.35606307 -21.08116518 90.67478535 -22 93 C-22.33 93 -22.66 93 -23 93 C-23.20496094 91.81921875 -23.40992188 90.6384375 -23.62109375 89.421875 C-23.89315305 87.86457003 -24.16529268 86.3072791 -24.4375 84.75 C-24.57220703 83.97269531 -24.70691406 83.19539063 -24.84570312 82.39453125 C-24.97783203 81.64042969 -25.10996094 80.88632813 -25.24609375 80.109375 C-25.36654053 79.41811523 -25.4869873 78.72685547 -25.61108398 78.01464844 C-25.87729902 76.63561109 -26.18670252 75.26440919 -26.53222656 73.90307617 C-30.89247249 56.16397546 -19.65428741 40.35914995 -11 26 C-10.45931885 25.10740479 -9.9186377 24.21480957 -9.36157227 23.29516602 C-8.83362061 22.42174561 -8.30566895 21.5483252 -7.76171875 20.6484375 C-7.049552 19.47740479 -7.049552 19.47740479 -6.32299805 18.28271484 C-2.88408602 12.34917961 -0.58306254 6.8509849 0 0 Z " fill="#FEFCFC" transform="translate(68,2)"/>
<path d="M0 0 C0.99 0.33 1.98 0.66 3 1 C2.125 6.75 2.125 6.75 1 9 C2.32 9 3.64 9 5 9 C5.02578125 9.66644531 5.0515625 10.33289063 5.078125 11.01953125 C5.55867654 18.82849376 6.66871261 27.14799033 11.94921875 33.25390625 C15.23848985 36.05448564 18.35615165 36.30801679 22.58740234 36.25390625 C28.53220196 35.62826452 34.23996683 33.34500455 39.89257812 31.48828125 C48.22610603 28.88571358 56.53585488 26.9775725 64.6875 31 C65.780625 31.66 66.87375 32.32 68 33 C67.505 33.99 67.505 33.99 67 35 C65.20963542 34.21875 63.41927083 33.4375 61.62890625 32.65625 C53.87388574 30.72037564 47.22082531 32.56827533 39.8125 35 C31.25850693 37.65006357 23.99582626 38.81642793 15 38 C15.5053125 38.85722656 16.010625 39.71445313 16.53125 40.59765625 C17.1809375 41.74105469 17.830625 42.88445312 18.5 44.0625 C19.47453125 45.75052734 19.47453125 45.75052734 20.46875 47.47265625 C22.39389523 51.90736579 22.81382073 55.50398 21.30078125 60.14453125 C18.94867059 64.11429904 17.29279521 65.54059201 13 67 C13.433125 66.43152344 13.86625 65.86304688 14.3125 65.27734375 C16.85119609 61.75725357 18.80112312 58.89494595 19.75 54.625 C18.29129697 47.57460204 14.25668219 41.6917823 10.0625 35.9375 C6.50055802 30.81017826 4.5368011 25.04772154 2.44750977 19.20678711 C2.17221436 18.45018799 1.89691895 17.69358887 1.61328125 16.9140625 C1.37391846 16.2329541 1.13455566 15.5518457 0.88793945 14.85009766 C-0.13248872 12.72394844 -1.18301463 11.49746957 -3 10 C-6.18049951 8.9868935 -6.18049951 8.9868935 -9.6875 8.3125 C-10.86699219 8.06113281 -12.04648438 7.80976563 -13.26171875 7.55078125 C-14.16535156 7.36902344 -15.06898437 7.18726563 -16 7 C-14 5 -14 5 -12.01171875 4.98046875 C-11.24472656 5.04878906 -10.47773437 5.11710938 -9.6875 5.1875 C-5.71128219 5.30935184 -5.2301522 5.18787934 -1.9375 2.5 C-1.298125 1.675 -0.65875 0.85 0 0 Z " fill="#D6866A" transform="translate(123,123)"/>
<path d="M0 0 C1.32 0 2.64 0 4 0 C2.125 4.75 2.125 4.75 1 7 C1.7425 6.319375 2.485 5.63875 3.25 4.9375 C6 3 6 3 8.3125 3.25 C9.1478125 3.62125 9.1478125 3.62125 10 4 C10 4.66 10 5.32 10 6 C8.02 6.99 8.02 6.99 6 8 C6 8.99 6 9.98 6 11 C7.98 10.67 9.96 10.34 12 10 C11.67 12.31 11.34 14.62 11 17 C11.99 17 12.98 17 14 17 C13.49396008 19.16874252 13.00016187 20.99967627 12 23 C15.465 22.505 15.465 22.505 19 22 C18.73087196 25.94721131 18.54393391 27.52405783 15.5 30.1875 C14.675 30.785625 13.85 31.38375 13 32 C12.67 32.99 12.34 33.98 12 35 C9.69 35 7.38 35 5 35 C6.16344336 32.67311328 7.34383117 30.39168332 8.625 28.125 C10.35412316 24.19517463 10.77053322 21.14371813 9.30078125 17.0546875 C7.58179131 14.33940609 5.53926902 13.02617935 2.875 11.25 C1.96492188 10.63640625 1.05484375 10.0228125 0.1171875 9.390625 C-0.58148438 8.93171875 -1.28015625 8.4728125 -2 8 C-1.34 5.36 -0.68 2.72 0 0 Z " fill="#FCF8F6" transform="translate(104,94)"/>
<path d="M0 0 C0 0.33 0 0.66 0 1 C-0.88260498 1.16604736 -1.76520996 1.33209473 -2.67456055 1.50317383 C-5.96554191 2.12717246 -9.2545818 2.75996132 -12.54272461 3.39868164 C-13.96294956 3.67270342 -15.38384768 3.94326085 -16.80541992 4.21020508 C-18.85524674 4.59575919 -20.90228483 4.99393704 -22.94921875 5.39453125 C-24.79519653 5.74801636 -24.79519653 5.74801636 -26.6784668 6.10864258 C-29.96711317 6.99117458 -32.26111842 7.99494258 -35 10 C-36.34689915 12.57099402 -36.34689915 12.57099402 -37 15 C-37.66 15 -38.32 15 -39 15 C-39.33 13.68 -39.66 12.36 -40 11 C-41.65 11.33 -43.3 11.66 -45 12 C-45.625 10.125 -45.625 10.125 -46 8 C-45.34 7.34 -44.68 6.68 -44 6 C-43.01 6 -42.02 6 -41 6 C-41.33 5.34 -41.66 4.68 -42 4 C-44.92879371 4.62759865 -47.36095629 5.58622659 -50 7 C-49.34 5.35 -48.68 3.7 -48 2 C-47.34 2 -46.68 2 -46 2 C-45.67 1.34 -45.34 0.68 -45 0 C-42.625 0.625 -42.625 0.625 -40 2 C-38.6875 5.125 -38.6875 5.125 -38 8 C-36.93007812 7.39800781 -35.86015625 6.79601562 -34.7578125 6.17578125 C-29.35699493 3.4801288 -23.76218333 2.3613249 -17.875 1.1875 C-16.81667969 0.95869141 -15.75835937 0.72988281 -14.66796875 0.49414062 C-5.16248213 -1.45585569 -5.16248213 -1.45585569 0 0 Z " fill="#D68467" transform="translate(155,94)"/>
<path d="M0 0 C0.99 0.33 1.98 0.66 3 1 C2.125 6.75 2.125 6.75 1 9 C2.32 9 3.64 9 5 9 C5.02578125 9.66644531 5.0515625 10.33289063 5.078125 11.01953125 C5.47290355 17.43468261 6.73011398 22.73778797 9.16015625 28.6875 C10 31 10 31 10 34 C7.54425861 31.80946491 6.39012954 29.96105877 5.28125 26.875 C4.98863281 26.08609375 4.69601563 25.2971875 4.39453125 24.484375 C3.79817708 22.828125 3.20182292 21.171875 2.60546875 19.515625 C2.31285156 18.72671875 2.02023438 17.9378125 1.71875 17.125 C1.33106445 16.04605469 1.33106445 16.04605469 0.93554688 14.9453125 C-0.10869908 12.77397853 -1.13986717 11.52395392 -3 10 C-6.18049951 8.9868935 -6.18049951 8.9868935 -9.6875 8.3125 C-10.86699219 8.06113281 -12.04648438 7.80976563 -13.26171875 7.55078125 C-14.16535156 7.36902344 -15.06898437 7.18726563 -16 7 C-14 5 -14 5 -12.01171875 4.98046875 C-11.24472656 5.04878906 -10.47773437 5.11710938 -9.6875 5.1875 C-5.71128219 5.30935184 -5.2301522 5.18787934 -1.9375 2.5 C-1.298125 1.675 -0.65875 0.85 0 0 Z " fill="#D7886D" transform="translate(123,123)"/>
<path d="M0 0 C5.28632649 1.76210883 7.06776664 7.86098519 9.58007812 12.59887695 C10.61269395 14.5393744 11.66828245 16.46598474 12.7265625 18.39257812 C13.39467465 19.63724601 14.06138549 20.8826673 14.7265625 22.12890625 C15.33064941 23.25369385 15.93473633 24.37848145 16.55712891 25.53735352 C18.21500057 29.51596499 18.64626995 32.72454383 19 37 C19.8353125 36.4740625 19.8353125 36.4740625 20.6875 35.9375 C23.53886783 34.78154007 25.08517222 35.19032562 28 36 C28 36.66 28 37.32 28 38 C29.65 38 31.3 38 33 38 C33.495 39.98 33.495 39.98 34 42 C33.67 41.34 33.34 40.68 33 40 C31.68 40 30.36 40 29 40 C28.67 41.98 28.34 43.96 28 46 C26.515 45.505 26.515 45.505 25 45 C25.33 42.69 25.66 40.38 26 38 C21.545 38.495 21.545 38.495 17 39 C16.82726562 37.65035156 16.65453125 36.30070312 16.4765625 34.91015625 C14.97448863 27.39846231 11.07832003 21.04220665 7.375 14.4375 C6.31557481 12.51933475 5.25986565 10.59917439 4.20547485 8.67823792 C3.25827231 6.95710442 2.3019774 5.24098406 1.34521484 3.52514648 C0 1 0 1 0 0 Z " fill="#D58265" transform="translate(75,54)"/>
<path d="M0 0 C4.86710222 1.80263045 7.54540111 5.78346836 10.3125 10 C11.29158621 12.84825079 11.38106921 15.01495787 11 18 C8.24234729 20.51098194 5.33741776 21.81238192 1.875 23.125 C-1.61215468 24.44998542 -1.61215468 24.44998542 -5 26 C-7.37123246 26.23029956 -9.74741943 26.41119942 -12.125 26.5625 C-13.40632812 26.64628906 -14.68765625 26.73007813 -16.0078125 26.81640625 C-16.99523437 26.87699219 -17.98265625 26.93757813 -19 27 C-19 26.34 -19 25.68 -19 25 C-18.23816406 24.98582031 -17.47632813 24.97164062 -16.69140625 24.95703125 C-10.05826699 24.65063156 -5.5931793 23.69209147 0.01953125 20.14453125 C2.60586356 18.64986583 5.0431747 18.2274481 8 18 C8.86536617 12.3751199 6.64269045 9.43506708 3.5078125 5.05078125 C3.01023438 4.37402344 2.51265625 3.69726562 2 3 C1.34 2.01 0.68 1.02 0 0 Z " fill="#D47F61" transform="translate(195,114)"/>
<path d="M0 0 C1.32 0 2.64 0 4 0 C2.125 4.75 2.125 4.75 1 7 C1.7425 6.319375 2.485 5.63875 3.25 4.9375 C6 3 6 3 8.3125 3.25 C9.1478125 3.62125 9.1478125 3.62125 10 4 C10 4.66 10 5.32 10 6 C8.02 6.99 8.02 6.99 6 8 C6 8.99 6 9.98 6 11 C7.98 10.67 9.96 10.34 12 10 C11.34 12.31 10.68 14.62 10 17 C6 14 2 11 -2 8 C-1.34 5.36 -0.68 2.72 0 0 Z " fill="#FBF5F3" transform="translate(104,94)"/>
<path d="M0 0 C0.66 0.66 1.32 1.32 2 2 C-9.65892839 8.62958673 -23.64757021 11.22169937 -36.8125 8 C-37.864375 7.67 -38.91625 7.34 -40 7 C-39.34 6.34 -38.68 5.68 -38 5 C-35.98996945 5.26624859 -33.9903477 5.61318331 -32 6 C-20.50572742 6.80315078 -10.26496502 5.43871655 0 0 Z " fill="#D88B70" transform="translate(135,189)"/>
<path d="M0 0 C0 0.33 0 0.66 0 1 C-1.05574219 1.09474609 -1.05574219 1.09474609 -2.1328125 1.19140625 C-10.13838057 2.18426391 -16.17899372 4.75141244 -23.1640625 8.5390625 C-26 10 -26 10 -28 10 C-27.8125 7.6875 -27.8125 7.6875 -27 5 C-23.13047572 2.11413049 -19.31603578 1.18249798 -14.625 0.25 C-13.35914063 -0.01296875 -12.09328125 -0.2759375 -10.7890625 -0.546875 C-6.92923337 -1.00846281 -3.8028167 -0.72715358 0 0 Z " fill="#FBF4F1" transform="translate(147,98)"/>
<path d="M0 0 C4.46050765 0.5097723 6.79215539 1.8723515 10 5 C14.40425771 11.13626917 16.13276404 15.52871916 16.0625 23.1875 C16.05347656 24.45980469 16.04445313 25.73210938 16.03515625 27.04296875 C16.02355469 28.01878906 16.01195313 28.99460937 16 30 C15.67 30 15.34 30 15 30 C14.97421875 29.31035156 14.9484375 28.62070312 14.921875 27.91015625 C14.34046777 18.27729554 11.79071948 10.96048746 5 4 C2.85019503 2.62745412 2.85019503 2.62745412 1 2 C0.67 3.32 0.34 4.64 0 6 C0 4.02 0 2.04 0 0 Z " fill="#D48062" transform="translate(67,0)"/>
<path d="M0 0 C0.66 0.33 1.32 0.66 2 1 C1.5153125 1.52207031 1.030625 2.04414063 0.53125 2.58203125 C-3.27926863 6.76627383 -6.79449934 11.00119476 -10.0625 15.625 C-13.32831622 20.22301057 -16.8442327 24.19487556 -21 28 C-21 24.19814188 -20.07493658 23.6937798 -17.5 21 C-14.33103615 17.56742323 -11.51589172 14.06049499 -8.8125 10.25 C-6.11374249 6.45470591 -3.44755509 3.1243468 0 0 Z " fill="#D37C5C" transform="translate(110,13)"/>
<path d="M0 0 C0.99 0.33 1.98 0.66 3 1 C2.125 6.75 2.125 6.75 1 9 C2.32 9 3.64 9 5 9 C4.67 10.65 4.34 12.3 4 14 C3.278125 13.21625 2.55625 12.4325 1.8125 11.625 C-0.83299041 9.15587562 -2.60373611 8.06739722 -6 7 C-4.02 4.69 -2.04 2.38 0 0 Z " fill="#FCF6F5" transform="translate(123,123)"/>
<path d="M0 0 C0.33 0 0.66 0 1 0 C2.73106508 9.23929919 1.59935061 18.68501681 -3 27 C-4.35295726 23.26583796 -3.61768322 20.65448199 -2.625 16.875 C-1.23084251 11.2410759 -0.37875796 5.78585437 0 0 Z " fill="#D99076" transform="translate(63,34)"/>
<path d="M0 0 C1.423125 0.7115625 1.423125 0.7115625 2.875 1.4375 C7.4465467 3.42757782 12.06888627 3.71226902 17 4 C17 4.33 17 4.66 17 5 C13.04 5 9.08 5 5 5 C5.99 6.65 6.98 8.3 8 10 C7.67 10.99 7.34 11.98 7 13 C5.82479354 11.40207898 4.66008753 9.79643092 3.5 8.1875 C2.8503125 7.29417969 2.200625 6.40085938 1.53125 5.48046875 C0 3 0 3 0 0 Z " fill="#D37C5D" transform="translate(133,156)"/>
<path d="M0 0 C1.98 0.66 3.96 1.32 6 2 C6.33 3.98 6.66 5.96 7 8 C5.35 8.66 3.7 9.32 2 10 C2.33 9.01 2.66 8.02 3 7 C3.66 7 4.32 7 5 7 C4.67 6.01 4.34 5.02 4 4 C1.07120629 4.62759865 -1.36095629 5.58622659 -4 7 C-3.34 5.35 -2.68 3.7 -2 2 C-1.34 2 -0.68 2 0 2 C0 1.34 0 0.68 0 0 Z " fill="#DB957C" transform="translate(109,94)"/>
<path d="M0 0 C0.54140625 0.22558594 1.0828125 0.45117188 1.640625 0.68359375 C-0.1258407 1.69128895 -1.89771323 2.68951089 -3.671875 3.68359375 C-5.15107422 4.51890625 -5.15107422 4.51890625 -6.66015625 5.37109375 C-9.359375 6.68359375 -9.359375 6.68359375 -12.359375 6.68359375 C-12.689375 8.00359375 -13.019375 9.32359375 -13.359375 10.68359375 C-13.359375 9.69359375 -13.359375 8.70359375 -13.359375 7.68359375 C-14.679375 7.68359375 -15.999375 7.68359375 -17.359375 7.68359375 C-17.029375 6.36359375 -16.699375 5.04359375 -16.359375 3.68359375 C-16.359375 4.67359375 -16.359375 5.66359375 -16.359375 6.68359375 C-15.699375 6.68359375 -15.039375 6.68359375 -14.359375 6.68359375 C-14.029375 5.69359375 -13.699375 4.70359375 -13.359375 3.68359375 C-13.359375 4.34359375 -13.359375 5.00359375 -13.359375 5.68359375 C-12.61171875 5.23886719 -11.8640625 4.79414062 -11.09375 4.3359375 C-10.10890625 3.77003906 -9.1240625 3.20414062 -8.109375 2.62109375 C-6.64757812 1.76837891 -6.64757812 1.76837891 -5.15625 0.8984375 C-2.359375 -0.31640625 -2.359375 -0.31640625 0 0 Z " fill="#D37D5E" transform="translate(132.359375,102.31640625)"/>
<path d="M0 0 C0 0.33 0 0.66 0 1 C-2.35163241 1.53570005 -4.70503348 2.05367829 -7.0625 2.5625 C-8.04766602 2.78969727 -8.04766602 2.78969727 -9.05273438 3.02148438 C-13.70684974 4.00733147 -17.32807978 3.91737315 -22 3 C-22 2.67 -22 2.34 -22 2 C-19.46045692 1.46615306 -16.9193065 0.94769806 -14.375 0.4375 C-13.66214844 0.28603516 -12.94929687 0.13457031 -12.21484375 -0.02148438 C-7.83982036 -0.8844477 -4.41938826 -1.05256724 0 0 Z " fill="#DA9279" transform="translate(155,94)"/>
<path d="M0 0 C2.58322859 1.0039859 3.79362004 1.66431407 5.265625 4.05859375 C5.59046875 4.84363281 5.9153125 5.62867187 6.25 6.4375 C6.58515625 7.21996094 6.9203125 8.00242188 7.265625 8.80859375 C8 11 8 11 8 14 C7.01 13.67 6.02 13.34 5 13 C4.12109375 11.07421875 4.12109375 11.07421875 3.4375 8.6875 C2.53460417 5.60133064 1.51484461 2.84114634 0 0 Z " fill="#D7886C" transform="translate(44,120)"/>
<path d="M0 0 C3.3 0 6.6 0 10 0 C9.67 0.66 9.34 1.32 9 2 C9.99 2.66 10.98 3.32 12 4 C8.52128379 5.15957207 7.65780355 4.77456651 4.3125 3.5625 C3.50425781 3.27503906 2.69601563 2.98757812 1.86328125 2.69140625 C1.24839844 2.46324219 0.63351563 2.23507813 0 2 C0 1.34 0 0.68 0 0 Z " fill="#D99076" transform="translate(178,140)"/>
<path d="M0 0 C0.33 0 0.66 0 1 0 C1 3.3 1 6.6 1 10 C1.66 10 2.32 10 3 10 C2.34 12.97 1.68 15.94 1 19 C0.67 19 0.34 19 0 19 C0 12.73 0 6.46 0 0 Z " fill="#D27756" transform="translate(43,86)"/>
<path d="M0 0 C0.99 0.33 1.98 0.66 3 1 C2.01 1.99 1.02 2.98 0 4 C0.99 3.34 1.98 2.68 3 2 C3.99 2 4.98 2 6 2 C6 2.66 6 3.32 6 4 C3 6 3 6 0.3125 5.625 C-0.450625 5.41875 -1.21375 5.2125 -2 5 C-1.125 1.125 -1.125 1.125 0 0 Z " fill="#D48062" transform="translate(111,100)"/>
<path d="M0 0 C2.4056198 3.84899168 2.71267364 7.54644135 3 12 C2.34 12.66 1.68 13.32 1 14 C0.63794536 12.04310963 0.28558579 10.08442332 -0.0625 8.125 C-0.25972656 7.03445312 -0.45695312 5.94390625 -0.66015625 4.8203125 C-1 2 -1 2 0 0 Z " fill="#D99076" transform="translate(41,74)"/>
<path d="M0 0 C0.66 0.66 1.32 1.32 2 2 C5.09926819 1.67801034 5.09926819 1.67801034 8 1 C7.34 3.31 6.68 5.62 6 8 C1.3125 4.38671875 1.3125 4.38671875 0 3 C0 2.01 0 1.02 0 0 Z " fill="#F4E1DB" transform="translate(108,103)"/>
<path d="M0 0 C1.32 0 2.64 0 4 0 C4.33 0.99 4.66 1.98 5 3 C7.00016466 4.20882096 7.00016466 4.20882096 9 5 C7.35 5 5.7 5 4 5 C4 5.66 4 6.32 4 7 C3.01 7 2.02 7 1 7 C1.66 5.02 2.32 3.04 3 1 C2.01 0.67 1.02 0.34 0 0 Z " fill="#DA937B" transform="translate(115,110)"/>
<path d="M0 0 C0.33 0.99 0.66 1.98 1 3 C-1.97 5.475 -1.97 5.475 -5 8 C-5 5 -5 5 -2.5 2.3125 C-1.675 1.549375 -0.85 0.78625 0 0 Z " fill="#D78B70" transform="translate(25,155)"/>
<path d="M0 0 C0.66 0.66 1.32 1.32 2 2 C1.01 3.98 0.02 5.96 -1 8 C-1.66 8 -2.32 8 -3 8 C-3.36923077 3.44615385 -3.36923077 3.44615385 -1.5 1.1875 C-1.005 0.795625 -0.51 0.40375 0 0 Z " fill="#DC9780" transform="translate(119,101)"/>
<path d="M0 0 C0.33 0 0.66 0 1 0 C1 2.31 1 4.62 1 7 C1.66 7 2.32 7 3 7 C2.67 8.32 2.34 9.64 2 11 C1.34 11 0.68 11 0 11 C0 7.37 0 3.74 0 0 Z " fill="#D27A5A" transform="translate(94,227)"/>
</svg>
